<svg width="240" height="240" viewBox="0 0 240 240" fill="none" xmlns="http://www.w3.org/2000/svg">
<circle cx="120" cy="120" r="117" stroke="#186F71" stroke-width="6"/>
<g filter="url(#filter0_d_2377_153)">
<circle cx="120" cy="116" r="40" fill="url(#paint0_linear_2377_153)"/>
</g>
<path d="M21.9668 163.15C78.1923 125.852 135.814 121.991 221.095 158.13C205.747 198.378 166.498 227 120.5 227C76.4376 227 38.5667 200.737 21.9668 163.15Z" fill="#4D9C82"/>
<path d="M31.0938 179.65C86.9803 154.176 143.937 150.966 211.875 176.625C192.91 206.865 159.08 227 120.5 227C83.2218 227 50.3769 208.201 31.0938 179.65Z" fill="#156349"/>
<path d="M47.8447 198.991C96.2812 188.919 144.718 188.919 193.154 198.991C174.021 216.383 148.513 227 120.5 227C92.4869 227 66.9778 216.383 47.8447 198.991Z" fill="#043D2A"/>
<defs>
<filter id="filter0_d_2377_153" x="69" y="65" width="102" height="102" filterUnits="userSpaceOnUse" color-interpolation-filters="sRGB">
<feFlood flood-opacity="0" result="BackgroundImageFix"/>
<feColorMatrix in="SourceAlpha" type="matrix" values="0 0 0 0 0 0 0 0 0 0 0 0 0 0 0 0 0 0 127 0" result="hardAlpha"/>
<feMorphology radius="1" operator="dilate" in="SourceAlpha" result="effect1_dropShadow_2377_153"/>
<feOffset/>
<feGaussianBlur stdDeviation="5"/>
<feComposite in2="hardAlpha" operator="out"/>
<feColorMatrix type="matrix" values="0 0 0 0 0.95 0 0 0 0 0.893365 0 0 0 0 0.52524 0 0 0 1 0"/>
<feBlend mode="normal" in2="BackgroundImageFix" result="effect1_dropShadow_2377_153"/>
<feBlend mode="normal" in="SourceGraphic" in2="effect1_dropShadow_2377_153" result="shape"/>
</filter>
<linearGradient id="paint0_linear_2377_153" x1="120" y1="76" x2="120" y2="156" gradientUnits="userSpaceOnUse">
<stop stop-color="#FFDD00"/>
<stop offset="1" stop-color="#E2711D"/>
</linearGradient>
</defs>
</svg>
