<svg width="240" height="240" viewBox="0 0 240 240" fill="none" xmlns="http://www.w3.org/2000/svg">
<circle cx="120" cy="120" r="117" stroke="#186F71" stroke-width="6"/>
<path d="M228 112C228 99.7871 225.607 87.6937 220.959 76.4104C216.31 65.1272 209.497 54.8749 200.907 46.2391L135.5 112H228Z" fill="#90CCE6"/>
<path d="M200.907 189.761C209.497 181.125 216.31 170.873 220.959 159.59C225.607 148.306 228 136.213 228 124H135.5L200.907 189.761Z" fill="#90CCE6"/>
<path d="M125.5 225C137.647 225 149.676 222.594 160.898 217.921C172.121 213.247 182.318 206.397 190.907 197.761L125.5 132L125.5 225Z" fill="#90CCE6"/>
<path d="M48.0926 197.761C56.682 206.397 66.8792 213.247 78.1018 217.921C89.3244 222.594 101.353 225 113.5 225L113.5 132L48.0926 197.761Z" fill="#90CCE6"/>
<path d="M13 124C13 136.213 15.3926 148.306 20.0411 159.59C24.6897 170.873 31.5032 181.125 40.0926 189.761L105.5 124L13 124Z" fill="#90CCE6"/>
<path d="M40.0926 46.2391C31.5032 54.8749 24.6897 65.1272 20.0411 76.4105C15.3926 87.6937 13 99.7871 13 112L105.5 112L40.0926 46.2391Z" fill="#90CCE6"/>
<path d="M114.5 12C89.9675 12 66.4397 21.7982 49.0926 39.2391L114.5 105L114.5 12Z" fill="#90CCE6"/>
<path d="M190.907 39.2391C182.318 30.6032 172.121 23.7529 160.898 19.0792C149.676 14.4055 137.647 12 125.5 12L125.5 105L190.907 39.2391Z" fill="#90CCE6"/>
<g filter="url(#filter0_d_2377_75)">
<circle cx="120" cy="116" r="40" fill="url(#paint0_linear_2377_75)"/>
</g>
<path d="M21.9668 163.15C78.1923 125.852 135.814 121.991 221.095 158.13C205.747 198.378 166.498 227 120.5 227C76.4376 227 38.5667 200.737 21.9668 163.15Z" fill="#4D9C82"/>
<path d="M31.0938 179.65C86.9803 154.176 143.937 150.966 211.875 176.625C192.91 206.865 159.08 227 120.5 227C83.2218 227 50.3769 208.201 31.0938 179.65Z" fill="#156349"/>
<path d="M47.8447 198.991C96.2812 188.919 144.718 188.919 193.154 198.991C174.021 216.383 148.513 227 120.5 227C92.4869 227 66.9778 216.383 47.8447 198.991Z" fill="#043D2A"/>
<defs>
<filter id="filter0_d_2377_75" x="69" y="65" width="102" height="102" filterUnits="userSpaceOnUse" color-interpolation-filters="sRGB">
<feFlood flood-opacity="0" result="BackgroundImageFix"/>
<feColorMatrix in="SourceAlpha" type="matrix" values="0 0 0 0 0 0 0 0 0 0 0 0 0 0 0 0 0 0 127 0" result="hardAlpha"/>
<feMorphology radius="1" operator="dilate" in="SourceAlpha" result="effect1_dropShadow_2377_75"/>
<feOffset/>
<feGaussianBlur stdDeviation="5"/>
<feComposite in2="hardAlpha" operator="out"/>
<feColorMatrix type="matrix" values="0 0 0 0 0.95 0 0 0 0 0.893365 0 0 0 0 0.52524 0 0 0 1 0"/>
<feBlend mode="normal" in2="BackgroundImageFix" result="effect1_dropShadow_2377_75"/>
<feBlend mode="normal" in="SourceGraphic" in2="effect1_dropShadow_2377_75" result="shape"/>
</filter>
<linearGradient id="paint0_linear_2377_75" x1="120" y1="76" x2="120" y2="156" gradientUnits="userSpaceOnUse">
<stop stop-color="#FFDD00"/>
<stop offset="1" stop-color="#E2711D"/>
</linearGradient>
</defs>
</svg>
